<mxfile host="app.diagrams.net" modified="2023-05-09T16:26:11.943Z" agent="Mozilla/5.0 (Windows NT 10.0; Win64; x64) AppleWebKit/537.36 (KHTML, like Gecko) Chrome/112.0.0.0 Safari/537.36" etag="4sU6Tkjb8-ENSda_UrDR" version="21.2.9" type="device">
  <diagram name="Σελίδα-1" id="_iBM-iBh4CWpc879HC5F">
    <mxGraphModel dx="1050" dy="541" grid="1" gridSize="10" guides="1" tooltips="1" connect="1" arrows="1" fold="1" page="1" pageScale="1" pageWidth="1169" pageHeight="1654" math="0" shadow="0">
      <root>
        <mxCell id="0" />
        <mxCell id="1" parent="0" />
        <mxCell id="IZogD_J_A0Ba_j_AzJyD-7" value="" style="rounded=0;orthogonalLoop=1;jettySize=auto;html=1;exitX=1;exitY=0.3333333333333333;exitDx=0;exitDy=0;exitPerimeter=0;strokeColor=#000000;fontColor=#000000;" parent="1" source="IZogD_J_A0Ba_j_AzJyD-1" target="IZogD_J_A0Ba_j_AzJyD-6" edge="1">
          <mxGeometry relative="1" as="geometry">
            <mxPoint x="556" y="360" as="sourcePoint" />
          </mxGeometry>
        </mxCell>
        <mxCell id="IZogD_J_A0Ba_j_AzJyD-8" value="&lt;font&gt;Ανάγνωση&lt;br&gt;&amp;nbsp;και αξιολόγηση&lt;br&gt;&amp;nbsp;αναρτήσεων&lt;br&gt;χρηστών&lt;/font&gt;" style="edgeLabel;html=1;align=center;verticalAlign=middle;resizable=0;points=[];fontColor=#000000;" parent="IZogD_J_A0Ba_j_AzJyD-7" vertex="1" connectable="0">
          <mxGeometry x="-0.66" y="-1" relative="1" as="geometry">
            <mxPoint x="36" y="-31" as="offset" />
          </mxGeometry>
        </mxCell>
        <mxCell id="IZogD_J_A0Ba_j_AzJyD-14" value="" style="edgeStyle=none;rounded=0;orthogonalLoop=1;jettySize=auto;html=1;fontColor=#000000;strokeColor=#000000;" parent="1" source="IZogD_J_A0Ba_j_AzJyD-1" target="IZogD_J_A0Ba_j_AzJyD-12" edge="1">
          <mxGeometry relative="1" as="geometry" />
        </mxCell>
        <mxCell id="IZogD_J_A0Ba_j_AzJyD-15" value="Επιλέγει κείμενο" style="edgeLabel;html=1;align=center;verticalAlign=middle;resizable=0;points=[];fontColor=#000000;" parent="IZogD_J_A0Ba_j_AzJyD-14" vertex="1" connectable="0">
          <mxGeometry x="-0.1214" y="2" relative="1" as="geometry">
            <mxPoint as="offset" />
          </mxGeometry>
        </mxCell>
        <mxCell id="IZogD_J_A0Ba_j_AzJyD-27" value="" style="edgeStyle=none;rounded=0;orthogonalLoop=1;jettySize=auto;html=1;fontColor=#000000;strokeColor=#000000;" parent="1" source="IZogD_J_A0Ba_j_AzJyD-1" target="IZogD_J_A0Ba_j_AzJyD-25" edge="1">
          <mxGeometry relative="1" as="geometry" />
        </mxCell>
        <mxCell id="IZogD_J_A0Ba_j_AzJyD-28" value="Αξιολογεί θετικά /αρνητικά κείμενο" style="edgeLabel;html=1;align=center;verticalAlign=middle;resizable=0;points=[];fontColor=#000000;" parent="IZogD_J_A0Ba_j_AzJyD-27" vertex="1" connectable="0">
          <mxGeometry x="-0.3133" y="-2" relative="1" as="geometry">
            <mxPoint x="17" as="offset" />
          </mxGeometry>
        </mxCell>
        <mxCell id="IZogD_J_A0Ba_j_AzJyD-39" value="" style="edgeStyle=none;rounded=0;orthogonalLoop=1;jettySize=auto;html=1;fontColor=#000000;strokeColor=#000000;" parent="1" source="IZogD_J_A0Ba_j_AzJyD-1" target="IZogD_J_A0Ba_j_AzJyD-34" edge="1">
          <mxGeometry relative="1" as="geometry" />
        </mxCell>
        <mxCell id="IZogD_J_A0Ba_j_AzJyD-40" value="Αφήνει σχόλιο" style="edgeLabel;html=1;align=center;verticalAlign=middle;resizable=0;points=[];fontColor=#000000;" parent="IZogD_J_A0Ba_j_AzJyD-39" vertex="1" connectable="0">
          <mxGeometry x="0.2361" relative="1" as="geometry">
            <mxPoint as="offset" />
          </mxGeometry>
        </mxCell>
        <mxCell id="IZogD_J_A0Ba_j_AzJyD-1" value="Χρήστης" style="shape=umlActor;verticalLabelPosition=bottom;verticalAlign=top;html=1;outlineConnect=0;fontColor=#000000;" parent="1" vertex="1">
          <mxGeometry x="430" y="400" width="30" height="60" as="geometry" />
        </mxCell>
        <mxCell id="IZogD_J_A0Ba_j_AzJyD-11" value="" style="edgeStyle=none;rounded=0;orthogonalLoop=1;jettySize=auto;html=1;strokeColor=#000000;fontColor=#000000;" parent="1" source="IZogD_J_A0Ba_j_AzJyD-6" target="IZogD_J_A0Ba_j_AzJyD-10" edge="1">
          <mxGeometry relative="1" as="geometry" />
        </mxCell>
        <mxCell id="IZogD_J_A0Ba_j_AzJyD-6" value="&lt;font&gt;Σελίδα ανάγνωση και αξιολόγηση αναρτήσεων&lt;br&gt;χρηστών&lt;/font&gt;" style="shape=umlBoundary;whiteSpace=wrap;html=1;strokeColor=#000000;fontColor=#000000;" parent="1" vertex="1">
          <mxGeometry x="620" y="390" width="100" height="80" as="geometry" />
        </mxCell>
        <mxCell id="IZogD_J_A0Ba_j_AzJyD-13" value="" style="edgeStyle=none;rounded=0;orthogonalLoop=1;jettySize=auto;html=1;strokeColor=#000000;fontColor=#000000;" parent="1" source="IZogD_J_A0Ba_j_AzJyD-10" target="IZogD_J_A0Ba_j_AzJyD-12" edge="1">
          <mxGeometry relative="1" as="geometry" />
        </mxCell>
        <mxCell id="IZogD_J_A0Ba_j_AzJyD-10" value="&lt;font&gt;Εμφάνισε&lt;/font&gt;" style="ellipse;shape=umlControl;whiteSpace=wrap;html=1;strokeColor=#000000;fontColor=#000000;" parent="1" vertex="1">
          <mxGeometry x="770" y="390" width="70" height="80" as="geometry" />
        </mxCell>
        <mxCell id="IZogD_J_A0Ba_j_AzJyD-19" value="" style="edgeStyle=none;rounded=0;orthogonalLoop=1;jettySize=auto;html=1;strokeColor=#000000;fontColor=#000000;" parent="1" source="IZogD_J_A0Ba_j_AzJyD-12" target="IZogD_J_A0Ba_j_AzJyD-18" edge="1">
          <mxGeometry relative="1" as="geometry" />
        </mxCell>
        <mxCell id="IZogD_J_A0Ba_j_AzJyD-12" value="&lt;font&gt;Σελίδα&amp;nbsp;&lt;br&gt;λίστα τίτλων κειμένων&lt;/font&gt;" style="shape=umlBoundary;whiteSpace=wrap;html=1;strokeColor=#FF0000;fontColor=#000000;" parent="1" vertex="1">
          <mxGeometry x="755" y="510" width="100" height="80" as="geometry" />
        </mxCell>
        <mxCell id="IZogD_J_A0Ba_j_AzJyD-24" value="" style="edgeStyle=none;rounded=0;orthogonalLoop=1;jettySize=auto;html=1;strokeColor=#000000;fontColor=#000000;" parent="1" source="IZogD_J_A0Ba_j_AzJyD-16" target="IZogD_J_A0Ba_j_AzJyD-23" edge="1">
          <mxGeometry relative="1" as="geometry" />
        </mxCell>
        <mxCell id="IZogD_J_A0Ba_j_AzJyD-16" value="&lt;font&gt;Σελίδα επιλεγμένου κειμένου&lt;/font&gt;" style="shape=umlBoundary;whiteSpace=wrap;html=1;strokeColor=#FF0000;fontColor=#000000;" parent="1" vertex="1">
          <mxGeometry x="630" y="640" width="100" height="80" as="geometry" />
        </mxCell>
        <mxCell id="IZogD_J_A0Ba_j_AzJyD-20" value="" style="edgeStyle=none;rounded=0;orthogonalLoop=1;jettySize=auto;html=1;strokeColor=#000000;fontColor=#000000;" parent="1" source="IZogD_J_A0Ba_j_AzJyD-18" target="IZogD_J_A0Ba_j_AzJyD-16" edge="1">
          <mxGeometry relative="1" as="geometry" />
        </mxCell>
        <mxCell id="IZogD_J_A0Ba_j_AzJyD-22" value="" style="edgeStyle=none;rounded=0;orthogonalLoop=1;jettySize=auto;html=1;strokeColor=#000000;endArrow=none;endFill=0;fontColor=#000000;" parent="1" source="IZogD_J_A0Ba_j_AzJyD-18" target="IZogD_J_A0Ba_j_AzJyD-21" edge="1">
          <mxGeometry relative="1" as="geometry" />
        </mxCell>
        <mxCell id="IZogD_J_A0Ba_j_AzJyD-18" value="&lt;font&gt;Εμφάνισε&lt;/font&gt;" style="ellipse;shape=umlControl;whiteSpace=wrap;html=1;strokeColor=#FF0000;fontColor=#000000;" parent="1" vertex="1">
          <mxGeometry x="770" y="640" width="70" height="80" as="geometry" />
        </mxCell>
        <mxCell id="IZogD_J_A0Ba_j_AzJyD-21" value="&lt;font&gt;Λίστα αναρτήσεων&lt;/font&gt;" style="ellipse;shape=umlEntity;whiteSpace=wrap;html=1;strokeColor=#000000;fontColor=#000000;" parent="1" vertex="1">
          <mxGeometry x="920" y="520" width="80" height="80" as="geometry" />
        </mxCell>
        <mxCell id="IZogD_J_A0Ba_j_AzJyD-26" value="" style="edgeStyle=none;rounded=0;orthogonalLoop=1;jettySize=auto;html=1;strokeColor=#000000;fontColor=#000000;" parent="1" source="IZogD_J_A0Ba_j_AzJyD-23" target="IZogD_J_A0Ba_j_AzJyD-25" edge="1">
          <mxGeometry relative="1" as="geometry" />
        </mxCell>
        <mxCell id="IZogD_J_A0Ba_j_AzJyD-23" value="&lt;font&gt;Εμφάνισε&lt;/font&gt;" style="ellipse;shape=umlControl;whiteSpace=wrap;html=1;strokeColor=#FF0000;fontColor=#000000;" parent="1" vertex="1">
          <mxGeometry x="530" y="640" width="70" height="80" as="geometry" />
        </mxCell>
        <mxCell id="IZogD_J_A0Ba_j_AzJyD-31" value="" style="edgeStyle=none;rounded=0;orthogonalLoop=1;jettySize=auto;html=1;strokeColor=#000000;fontColor=#000000;" parent="1" source="IZogD_J_A0Ba_j_AzJyD-25" target="IZogD_J_A0Ba_j_AzJyD-30" edge="1">
          <mxGeometry relative="1" as="geometry" />
        </mxCell>
        <mxCell id="IZogD_J_A0Ba_j_AzJyD-25" value="&lt;font&gt;Σελίδα αξιολόγησης&lt;br&gt;κειμένου&lt;/font&gt;" style="shape=umlBoundary;whiteSpace=wrap;html=1;strokeColor=#FF0000;fontColor=#000000;" parent="1" vertex="1">
          <mxGeometry x="395" y="640" width="100" height="80" as="geometry" />
        </mxCell>
        <mxCell id="IZogD_J_A0Ba_j_AzJyD-33" value="" style="edgeStyle=none;rounded=0;orthogonalLoop=1;jettySize=auto;html=1;strokeColor=#000000;fontColor=#000000;endArrow=none;endFill=0;" parent="1" source="IZogD_J_A0Ba_j_AzJyD-30" target="IZogD_J_A0Ba_j_AzJyD-32" edge="1">
          <mxGeometry relative="1" as="geometry" />
        </mxCell>
        <mxCell id="IZogD_J_A0Ba_j_AzJyD-37" value="" style="edgeStyle=none;rounded=0;orthogonalLoop=1;jettySize=auto;html=1;strokeColor=#000000;fontColor=#000000;" parent="1" source="IZogD_J_A0Ba_j_AzJyD-30" target="IZogD_J_A0Ba_j_AzJyD-35" edge="1">
          <mxGeometry relative="1" as="geometry" />
        </mxCell>
        <mxCell id="IZogD_J_A0Ba_j_AzJyD-30" value="&lt;font&gt;Ανανέωσε&lt;/font&gt;" style="ellipse;shape=umlControl;whiteSpace=wrap;html=1;strokeColor=#FF0000;fontColor=#000000;" parent="1" vertex="1">
          <mxGeometry x="295" y="640" width="70" height="80" as="geometry" />
        </mxCell>
        <mxCell id="IZogD_J_A0Ba_j_AzJyD-32" value="&lt;font&gt;Λίστα αναρτήσεων&lt;br&gt;(αξιολογήσεις)&lt;/font&gt;" style="ellipse;shape=umlEntity;whiteSpace=wrap;html=1;strokeColor=#FF0000;fontColor=#000000;" parent="1" vertex="1">
          <mxGeometry x="290" y="747" width="80" height="80" as="geometry" />
        </mxCell>
        <mxCell id="IZogD_J_A0Ba_j_AzJyD-42" value="" style="edgeStyle=none;rounded=0;orthogonalLoop=1;jettySize=auto;html=1;strokeColor=#000000;fontColor=#000000;" parent="1" source="IZogD_J_A0Ba_j_AzJyD-34" target="IZogD_J_A0Ba_j_AzJyD-41" edge="1">
          <mxGeometry relative="1" as="geometry" />
        </mxCell>
        <mxCell id="IZogD_J_A0Ba_j_AzJyD-34" value="&lt;font&gt;Σελίδα&amp;nbsp; σχολιασμού&lt;/font&gt;" style="shape=umlBoundary;whiteSpace=wrap;html=1;strokeColor=#FF0000;fontColor=#000000;" parent="1" vertex="1">
          <mxGeometry x="155" y="520" width="100" height="80" as="geometry" />
        </mxCell>
        <mxCell id="IZogD_J_A0Ba_j_AzJyD-38" value="" style="edgeStyle=none;rounded=0;orthogonalLoop=1;jettySize=auto;html=1;strokeColor=#000000;fontColor=#000000;" parent="1" source="IZogD_J_A0Ba_j_AzJyD-35" target="IZogD_J_A0Ba_j_AzJyD-34" edge="1">
          <mxGeometry relative="1" as="geometry" />
        </mxCell>
        <mxCell id="IZogD_J_A0Ba_j_AzJyD-35" value="&lt;font&gt;Εμφάνισε&lt;/font&gt;" style="ellipse;shape=umlControl;whiteSpace=wrap;html=1;strokeColor=#FF0000;fontColor=#000000;" parent="1" vertex="1">
          <mxGeometry x="170" y="640" width="70" height="80" as="geometry" />
        </mxCell>
        <mxCell id="IZogD_J_A0Ba_j_AzJyD-44" value="" style="edgeStyle=none;rounded=0;orthogonalLoop=1;jettySize=auto;html=1;strokeColor=#000000;fontColor=#000000;endArrow=none;endFill=0;" parent="1" source="IZogD_J_A0Ba_j_AzJyD-41" target="IZogD_J_A0Ba_j_AzJyD-43" edge="1">
          <mxGeometry relative="1" as="geometry" />
        </mxCell>
        <mxCell id="IZogD_J_A0Ba_j_AzJyD-46" value="" style="edgeStyle=none;rounded=0;orthogonalLoop=1;jettySize=auto;html=1;strokeColor=#000000;fontColor=#000000;" parent="1" source="IZogD_J_A0Ba_j_AzJyD-41" target="IZogD_J_A0Ba_j_AzJyD-45" edge="1">
          <mxGeometry relative="1" as="geometry" />
        </mxCell>
        <mxCell id="IZogD_J_A0Ba_j_AzJyD-41" value="&lt;font&gt;Ανανέωσε&lt;/font&gt;" style="ellipse;shape=umlControl;whiteSpace=wrap;html=1;strokeColor=#FF0000;fontColor=#000000;" parent="1" vertex="1">
          <mxGeometry x="170" y="410" width="70" height="80" as="geometry" />
        </mxCell>
        <mxCell id="IZogD_J_A0Ba_j_AzJyD-43" value="&lt;font&gt;Λίστα αναρτήσεων&lt;br&gt;(σχόλια)&lt;/font&gt;" style="ellipse;shape=umlEntity;whiteSpace=wrap;html=1;strokeColor=#FF0000;fontColor=#000000;" parent="1" vertex="1">
          <mxGeometry x="30" y="410" width="80" height="80" as="geometry" />
        </mxCell>
        <mxCell id="IZogD_J_A0Ba_j_AzJyD-45" value="&lt;font&gt;Εμφάνισε&lt;/font&gt;" style="ellipse;shape=umlControl;whiteSpace=wrap;html=1;strokeColor=#FF0000;fontColor=#000000;" parent="1" vertex="1">
          <mxGeometry x="170" y="300" width="70" height="80" as="geometry" />
        </mxCell>
        <mxCell id="P0phOxlTkk1C6Ju_UMIJ-1" value="" style="endArrow=none;html=1;rounded=0;entryX=0;entryY=0;entryDx=0;entryDy=0;fontColor=#000000;strokeColor=#000000;" parent="1" target="IZogD_J_A0Ba_j_AzJyD-21" edge="1">
          <mxGeometry width="50" height="50" relative="1" as="geometry">
            <mxPoint x="840" y="440" as="sourcePoint" />
            <mxPoint x="890" y="390" as="targetPoint" />
          </mxGeometry>
        </mxCell>
        <mxCell id="YtPL6dgyqhxN4X2cEYbY-2" value="&lt;font&gt;Εμφάνισε&lt;/font&gt;" style="ellipse;shape=umlControl;whiteSpace=wrap;html=1;strokeColor=#FF0000;fontColor=#000000;" parent="1" vertex="1">
          <mxGeometry x="170" y="300" width="70" height="80" as="geometry" />
        </mxCell>
        <mxCell id="YtPL6dgyqhxN4X2cEYbY-3" value="&lt;font&gt;Ανανέωσε&lt;/font&gt;" style="ellipse;shape=umlControl;whiteSpace=wrap;html=1;strokeColor=#FF0000;fontColor=#000000;" parent="1" vertex="1">
          <mxGeometry x="170" y="410" width="70" height="80" as="geometry" />
        </mxCell>
        <mxCell id="YtPL6dgyqhxN4X2cEYbY-4" value="&lt;font&gt;Λίστα αναρτήσεων&lt;br&gt;(σχόλια)&lt;/font&gt;" style="ellipse;shape=umlEntity;whiteSpace=wrap;html=1;strokeColor=#FF0000;fontColor=#000000;" parent="1" vertex="1">
          <mxGeometry x="30" y="410" width="80" height="80" as="geometry" />
        </mxCell>
        <mxCell id="YtPL6dgyqhxN4X2cEYbY-5" value="&lt;font&gt;Σελίδα&amp;nbsp; σχολιασμού&lt;/font&gt;" style="shape=umlBoundary;whiteSpace=wrap;html=1;strokeColor=#FF0000;fontColor=#000000;" parent="1" vertex="1">
          <mxGeometry x="155" y="520" width="100" height="80" as="geometry" />
        </mxCell>
        <mxCell id="YtPL6dgyqhxN4X2cEYbY-6" value="&lt;font&gt;Εμφάνισε&lt;/font&gt;" style="ellipse;shape=umlControl;whiteSpace=wrap;html=1;strokeColor=#FF0000;fontColor=#000000;" parent="1" vertex="1">
          <mxGeometry x="170" y="640" width="70" height="80" as="geometry" />
        </mxCell>
        <mxCell id="YtPL6dgyqhxN4X2cEYbY-7" value="&lt;font&gt;Μήνυμα επιτυχούς&lt;br&gt;καταχώρησης&amp;nbsp;&lt;/font&gt;" style="shape=umlBoundary;whiteSpace=wrap;html=1;strokeColor=#000000;fontColor=#000000;" parent="1" vertex="1">
          <mxGeometry x="152.5" y="190" width="105" height="80" as="geometry" />
        </mxCell>
        <mxCell id="YtPL6dgyqhxN4X2cEYbY-20" value="" style="edgeStyle=orthogonalEdgeStyle;rounded=0;orthogonalLoop=1;jettySize=auto;html=1;strokeColor=#000000;fontColor=#000000;" parent="1" source="YtPL6dgyqhxN4X2cEYbY-8" target="YtPL6dgyqhxN4X2cEYbY-7" edge="1">
          <mxGeometry relative="1" as="geometry" />
        </mxCell>
        <mxCell id="YtPL6dgyqhxN4X2cEYbY-8" value="&lt;font&gt;Εμφάνισε&lt;/font&gt;" style="ellipse;shape=umlControl;whiteSpace=wrap;html=1;strokeColor=#000000;fontColor=#000000;" parent="1" vertex="1">
          <mxGeometry x="170" y="300" width="70" height="80" as="geometry" />
        </mxCell>
        <mxCell id="YtPL6dgyqhxN4X2cEYbY-9" value="&lt;font&gt;Ανανέωσε&lt;/font&gt;" style="ellipse;shape=umlControl;whiteSpace=wrap;html=1;strokeColor=#000000;fontColor=#000000;" parent="1" vertex="1">
          <mxGeometry x="170" y="410" width="70" height="80" as="geometry" />
        </mxCell>
        <mxCell id="YtPL6dgyqhxN4X2cEYbY-10" value="&lt;font&gt;Λίστα αναρτήσεων&lt;br&gt;(σχόλια)&lt;/font&gt;" style="ellipse;shape=umlEntity;whiteSpace=wrap;html=1;strokeColor=#000000;fontColor=#000000;" parent="1" vertex="1">
          <mxGeometry x="30" y="410" width="80" height="80" as="geometry" />
        </mxCell>
        <mxCell id="YtPL6dgyqhxN4X2cEYbY-11" value="&lt;font&gt;Σελίδα&amp;nbsp; σχολιασμού&lt;/font&gt;" style="shape=umlBoundary;whiteSpace=wrap;html=1;strokeColor=#000000;fontColor=#000000;" parent="1" vertex="1">
          <mxGeometry x="155" y="520" width="100" height="80" as="geometry" />
        </mxCell>
        <mxCell id="YtPL6dgyqhxN4X2cEYbY-12" value="&lt;font&gt;Εμφάνισε&lt;/font&gt;" style="ellipse;shape=umlControl;whiteSpace=wrap;html=1;strokeColor=#000000;fontColor=#000000;" parent="1" vertex="1">
          <mxGeometry x="170" y="640" width="70" height="80" as="geometry" />
        </mxCell>
        <mxCell id="YtPL6dgyqhxN4X2cEYbY-13" value="&lt;font&gt;Ανανέωσε&lt;/font&gt;" style="ellipse;shape=umlControl;whiteSpace=wrap;html=1;strokeColor=#000000;fontColor=#000000;" parent="1" vertex="1">
          <mxGeometry x="295" y="640" width="70" height="80" as="geometry" />
        </mxCell>
        <mxCell id="YtPL6dgyqhxN4X2cEYbY-14" value="&lt;font&gt;Λίστα αναρτήσεων&lt;br&gt;(αξιολογήσεις)&lt;/font&gt;" style="ellipse;shape=umlEntity;whiteSpace=wrap;html=1;strokeColor=#000000;fontColor=#000000;" parent="1" vertex="1">
          <mxGeometry x="290" y="747" width="80" height="80" as="geometry" />
        </mxCell>
        <mxCell id="YtPL6dgyqhxN4X2cEYbY-15" value="&lt;font&gt;Σελίδα αξιολόγησης&lt;br&gt;κειμένου&lt;/font&gt;" style="shape=umlBoundary;whiteSpace=wrap;html=1;strokeColor=#000000;fontColor=#000000;" parent="1" vertex="1">
          <mxGeometry x="395" y="640" width="100" height="80" as="geometry" />
        </mxCell>
        <mxCell id="YtPL6dgyqhxN4X2cEYbY-16" value="&lt;font&gt;Εμφάνισε&lt;/font&gt;" style="ellipse;shape=umlControl;whiteSpace=wrap;html=1;strokeColor=#000000;fontColor=#000000;" parent="1" vertex="1">
          <mxGeometry x="530" y="640" width="70" height="80" as="geometry" />
        </mxCell>
        <mxCell id="YtPL6dgyqhxN4X2cEYbY-17" value="&lt;font&gt;Σελίδα επιλεγμένου κειμένου&lt;/font&gt;" style="shape=umlBoundary;whiteSpace=wrap;html=1;strokeColor=#000000;fontColor=#000000;" parent="1" vertex="1">
          <mxGeometry x="630" y="640" width="100" height="80" as="geometry" />
        </mxCell>
        <mxCell id="YtPL6dgyqhxN4X2cEYbY-18" value="&lt;font&gt;Εμφάνισε&lt;/font&gt;" style="ellipse;shape=umlControl;whiteSpace=wrap;html=1;strokeColor=#000000;fontColor=#000000;" parent="1" vertex="1">
          <mxGeometry x="770" y="640" width="70" height="80" as="geometry" />
        </mxCell>
        <mxCell id="YtPL6dgyqhxN4X2cEYbY-19" value="&lt;font&gt;Σελίδα&amp;nbsp;&lt;br&gt;λίστα τίτλων κειμένων&lt;/font&gt;" style="shape=umlBoundary;whiteSpace=wrap;html=1;strokeColor=#000000;fontColor=#000000;" parent="1" vertex="1">
          <mxGeometry x="755" y="510" width="100" height="80" as="geometry" />
        </mxCell>
      </root>
    </mxGraphModel>
  </diagram>
</mxfile>
